<svg xmlns="http://www.w3.org/2000/svg" xmlns:xlink="http://www.w3.org/1999/xlink" fill="none" version="1.1" width="136" height="32" viewBox="0 0 136 32"><defs><clipPath id="master_svg0_619_8580"><rect x="104" y="26" width="20" height="20" rx="0"/></clipPath></defs><g><g><rect x="0" y="0" width="136" height="32" rx="16" fill="#0068FF" fill-opacity="1"/><rect x="0.25" y="0.25" width="135.5" height="31.5" rx="15.75" fill-opacity="0" stroke-opacity="0.05999999865889549" stroke="#000000" fill="none" stroke-width="0.5"/></g><g transform="matrix(0,-1,1,0,78,130)" clip-path="url(#master_svg0_619_8580)"><g style="opacity:0;"><rect x="104" y="26" width="20" height="20" rx="0" fill="#EFEFEF" fill-opacity="1"/></g><g><path d="M118.6036421875,37.42858443359375L114.7143121875,41.31069443359375L114.7143121875,28.96429443359375L113.2857421875,28.96429443359375L113.2857421875,41.31069443359375L109.3964521875,37.42858443359375L108.3857421875,38.43929443359375L113.4964521875,43.54639443359375C113.7750521875,43.82339443359375,114.2250021875,43.82339443359375,114.50360218750001,43.54639443359375L119.6143421875,38.43929443359375L118.6036421875,37.42858443359375Z" fill="#FFFFFF" fill-opacity="1"/></g></g><g><path d="M30.36,8.940000000000001L30.14,10.68L23.240000000000002,10.68L23,12.66L27.46,12.66Q28.18,12.66,28.56,13.02Q28.94,13.38,28.94,14.06Q28.94,14.28,28.92,14.4L28.38,18.86L15.34,18.86L15.94,13.96Q16.04,13.34,16.43,13Q16.82,12.66,17.46,12.66L21,12.66L21.66,7.220000000000001L23.66,7.220000000000001L23.439999999999998,8.940000000000001L30.36,8.940000000000001ZM26.84,14.42L17.86,14.42L17.54,17.1L26.52,17.1L26.84,14.42ZM13.18,24.3L15.02,19.98L17,19.98L15.34,24.3L13.18,24.3ZM26.48,19.98L28.4,19.98L29.92,24.3L27.939999999999998,24.3L26.48,19.98ZM18.44,20.02L20.34,20.02L20.7,24.3L18.78,24.3L18.44,20.02ZM22.42,20.02L24.36,20.02L25.240000000000002,24.3L23.3,24.3L22.42,20.02ZM44.02,7.220000000000001L43.760000000000005,9.74L50.06,9.74L49.86,11.64L43.56,11.64L43.28,14.28L50.56,14.28L50.36,16.2L43.08,16.2L42.480000000000004,22.16L46.4,22.16L46.9,17.48L48.94,17.48L48.26,24.04L36.16,24.04Q34.66,24.04,34.66,22.76Q34.66,22.64,34.7,22.36L35.28,17.48L37.36,17.48L36.78,22.16L40.4,22.16L41,16.2L33.8,16.2L34.019999999999996,14.28L41.2,14.28L41.480000000000004,11.64L35.4,11.64L35.620000000000005,9.74L41.68,9.74L41.94,7.220000000000001L44.02,7.220000000000001ZM63.88,7.2L63.7,8.780000000000001L70.46000000000001,8.780000000000001L70.28,10.4L65.02000000000001,10.4Q66.22,11.46,68.02000000000001,12.52Q69.38,13.34,71.08,14.04L69.6,15.26Q68.08,14.56,66.52000000000001,13.5Q64.74000000000001,12.34,63.44,10.98L63.14,13.6L61.18,13.6L61.44,11.2Q60.06,12.54,58.2,13.6Q56.96,14.28,54.76,15.18L53.36,14Q55.76,13.02,57.29,12.25Q58.82,11.48,60.1,10.4L55,10.4L55.2,8.780000000000001L61.72,8.780000000000001L61.9,7.2L63.88,7.2ZM67.56,21.18L55.66,21.18L56.36,15.68Q56.46,14.96,56.95,14.57Q57.44,14.18,58.26,14.18L66.36,14.18Q68.2,14.18,68.2,15.68Q68.2,15.92,68.18,16.060000000000002L67.56,21.18ZM66.25999999999999,15.74L58.24,15.74L58.1,16.939999999999998L66.12,16.939999999999998L66.25999999999999,15.74ZM57.8,19.619999999999997L65.8,19.619999999999997L65.94,18.4L57.94,18.4L57.8,19.619999999999997ZM53.46,22.44L70,22.44L69.78,24.12L53.26,24.12L53.46,22.44ZM73.06,18.64Q76.16,16.82,78.18,14.8L74.14,14.8L74.34,13.2L79.58,13.2Q80.18,12.42,80.34,12.16L75.75999999999999,12.16L75.94,10.620000000000001L81.28,10.620000000000001L81.58,10.1Q81.74,9.74,81.84,9.559999999999999L75.68,9.719999999999999L75.9,8.14L76.84,8.120000000000001Q80.06,8.02,83.45,7.890000000000001Q86.84,7.76,89.74,7.5600000000000005L89.54,9.16Q86.98,9.36,83.96,9.48L83.36,10.620000000000001L89.28,10.620000000000001L89.12,12.16L82.46,12.16Q82.12,12.74,81.78,13.2L90.58,13.2L90.38,14.8L80.54,14.8Q80.18,15.22,79.8,15.6L87.06,15.6Q87.8,15.6,88.13,15.91Q88.46,16.22,88.46,16.880000000000003Q88.46,17.14,88.44,17.3L87.64,24.24L76.04,24.24L76.74,18.28Q76.04,18.8,74.64,19.68L73.06,18.64ZM86.54,17.14L78.82,17.14L78.7,18.08L86.42,18.08L86.54,17.14ZM86.26,19.48L78.54,19.48L78.44,20.38L86.16,20.38L86.26,19.48ZM78.28,21.76L78.18,22.68L85.9,22.68L86,21.76L78.28,21.76Z" fill="#FFFFFF" fill-opacity="1"/></g></g></svg>