<svg xmlns="http://www.w3.org/2000/svg" xmlns:xlink="http://www.w3.org/1999/xlink" fill="none" version="1.1" width="16" height="16" viewBox="0 0 16 16"><defs><clipPath id="master_svg0_506_9362"><rect x="0" y="0" width="16" height="16" rx="0"/></clipPath></defs><g clip-path="url(#master_svg0_506_9362)"><g style="opacity:0;"><rect x="0" y="0" width="16" height="16" rx="0" fill="#EFEFEF" fill-opacity="1"/></g><g><path d="M10.254379375,1.8286018158203126C11.162949375,1.7286018158203125,12.022959375,2.1171727158203124,12.951559375,3.0485987158203125C13.882959375,3.9771687158203126,14.265759375,4.860028715820313,14.171559375,5.745748715820312C14.077259375,6.631458715820313,13.537259375,7.520028715820312,12.394359375,8.662888715820312L11.597229375,9.460028715820313L10.791519375,8.651458715820311L11.585799375,7.857168715820312C12.511559375,6.9314587158203125,12.971559375,6.2228887158203126,13.037259375,5.622888715820313C13.094359375,5.077168715820313,12.822959375,4.528598715820312,12.145759375,3.8543187158203125C11.468659375,3.1800287158203124,10.925799375,2.908598715820313,10.377229375,2.9628887158203128C9.777229375000001,3.0285987158203125,9.068659375,3.4885987158203124,8.142949375,4.414318715820313C6.194369375,6.362888715820312,6.397229375,7.2228887158203126,7.585799375,8.414318715820311L6.777229375,9.222888715820313C4.980089375,7.428598715820312,5.142949375000001,5.7971687158203125,7.337229375,3.6057487158203125C8.468659375,2.4714587158203125,9.345799375,1.9286017158203126,10.254379375,1.8286018158203126ZM7.857229375,11.585738715820312C9.805799375,9.637168715820312,9.602949375,8.777168715820313,8.414369375,7.5857387158203124L9.245799375,6.791458715820313C11.031519375,8.588598715820313,10.868659375,10.217168715820312,8.674379375000001,12.408608715820312C7.542949375,13.542908715820312,6.642949375,14.091408715820313,5.757229375,14.185708715820313C5.662089375,14.191908715820313,5.566659375,14.191908715820313,5.471519375,14.185708715820313C4.660089375,14.185708715820313,3.882949375,13.788608715820313,3.0486593749999997,12.951408715820312C1.2515173750000002,11.157168715820312,1.411517375,9.528598715820312,3.605799375,7.3371687158203125L4.400089375,6.540028715820313L5.220089375000001,7.351458715820312L4.425799375,8.145738715820311C2.462945375,10.094308715820313,2.665802375,10.954308715820313,3.854379375,12.145708715820312C4.531519375,12.820008715820313,5.0743793749999995,13.091408715820313,5.622949375,13.037208715820313C6.222949375,12.971408715820312,6.931519375,12.511408715820313,7.857229375,11.585738715820312Z" fill-rule="evenodd" fill="#0068FF" fill-opacity="1"/></g></g></svg>