<svg xmlns="http://www.w3.org/2000/svg" xmlns:xlink="http://www.w3.org/1999/xlink" fill="none" version="1.1" width="20" height="20" viewBox="0 0 20 20"><defs><clipPath id="master_svg0_295_2717"><rect x="0" y="0" width="20" height="20" rx="0"/></clipPath></defs><g clip-path="url(#master_svg0_295_2717)"><g style="opacity:0;"><rect x="0" y="0" width="20" height="20" rx="0" fill="#EFEFEF" fill-opacity="1"/></g><g style="opacity:0.44999998807907104;"><path d="M10.000054375,18.099993896484374C5.526084375,18.101993896484377,1.897799425,14.476393896484375,1.896484545299,10.002373896484375C1.895826169,5.527743896484375,5.522514375,1.899994066783375,9.996484375,1.899994066783375C14.469784375,1.899336031484375,18.096484375,5.526023896484375,18.096484375,9.999993896484375C18.090584375,14.469693896484374,14.469684375,18.092093896484375,10.000054375,18.099993896484374ZM10.000054375,3.3285638964843747C6.315064375,3.326593896484375,3.3263743750000003,6.312623896484375,3.3250543749999997,9.997613896484374C3.324394375,13.683293896484376,6.311494375,16.671393896484375,9.996484375,16.671393896484375C13.680784375,16.672093896484377,16.667884375,13.684993896484375,16.667884375,9.999993896484375C16.663984375,6.318493896484375,13.681584375,3.3344738964843748,10.000054375,3.3285638964843747Z" fill="#000000" fill-opacity="1"/></g><g><path d="M13.565684727783204,7.455474727783203L11.021154727783202,10.000004727783203L13.565684727783204,12.544524727783203L12.544524727783203,13.565684727783204L10.000004727783203,11.021154727783202L7.455474727783203,13.565684727783204L6.434314727783203,12.544524727783203L8.978844727783203,10.000004727783203L6.4343147873878035,7.455474727783203L7.455474727783203,6.4343147873878035L10.000004727783203,8.978844727783203L12.544524727783203,6.434314727783203L13.565684727783204,7.455474727783203Z" fill-rule="evenodd" fill="#000000" fill-opacity="0.44999998807907104"/></g></g></svg>