<svg xmlns="http://www.w3.org/2000/svg" xmlns:xlink="http://www.w3.org/1999/xlink" fill="none" version="1.1" width="18" height="18" viewBox="0 0 18 18"><defs><clipPath id="master_svg0_1_5025"><rect x="0" y="0" width="18" height="18" rx="0"/></clipPath></defs><g clip-path="url(#master_svg0_1_5025)"><g style="opacity:0;"><rect x="0" y="0" width="18" height="18" rx="0" fill="#EFEFEF" fill-opacity="1"/></g><g style="opacity:0.44999998807907104;"><path d="M9.000007109375,16.289991455078123C4.973427109375001,16.291791455078126,1.707970649375,13.028691455078125,1.706787262644,9.002131455078125C1.706194724375,4.9749714550781245,4.970217109375,1.709991608347125,8.996787109375,1.709991608347125C13.022787109375,1.709399376078125,16.286787109375,4.973421455078125,16.286787109375,8.999991455078124C16.281487109375,13.022691455078125,13.022687109375,16.282891455078126,9.000007109375,16.289991455078123ZM9.000007109375,2.995701455078125C5.683507109375,2.9939314550781253,2.993687109375,5.681351455078125,2.992497109375,8.997851455078125C2.991907109375,12.314891455078126,5.680297109375,15.004291455078125,8.996787109375,15.004291455078125C12.312687109375,15.004891455078125,15.001087109375,12.316491455078125,15.001087109375,8.999991455078124C14.997487109375,5.686641455078124,12.313387109375,3.001021455078125,9.000007109375,2.995701455078125ZM9.736077109375,7.527851455078125L8.257507109375,7.527851455078125L8.177147109375,13.213891455078125L9.813217109375,13.213891455078125L9.736077109375,7.527851455078125ZM9.000007109375,6.695351455078125C9.532567109375,6.695351455078125,9.964287109375,6.263621455078125,9.964287109375,5.731061455078125C9.964287109375,5.198501455078125,9.532567109375,4.7667814550781245,9.000007109375,4.7667814550781245C8.467447109375,4.7667814550781245,8.035717109375,5.198501455078125,8.035717109375,5.731061455078125C8.035717109375,6.263621455078125,8.467447109375,6.695351455078125,9.000007109375,6.695351455078125Z" fill="#000000" fill-opacity="1"/></g></g></svg>