<svg xmlns="http://www.w3.org/2000/svg" xmlns:xlink="http://www.w3.org/1999/xlink" fill="none" version="1.1" width="20" height="20" viewBox="0 0 20 20"><defs><clipPath id="master_svg0_295_0658"><rect x="0" y="0" width="20" height="20" rx="0"/></clipPath></defs><g style="opacity:0.44999998807907104;" clip-path="url(#master_svg0_295_0658)"><g></g><g><g><path d="M14.6678,13.957799961853027Q16.6697,11.955959961853027,16.6697,9.124869961853026Q16.6697,6.293769961853028,14.6678,4.291889961853027Q12.66596,2.2899999618530273,9.834869999999999,2.2899999618530273Q7.00377,2.2899999618530273,5.0018899999999995,4.291889961853027Q3,6.293769961853028,3,9.124869961853026Q3,11.955959961853027,5.0018899999999995,13.957799961853027Q7.00378,15.959699961853028,9.834869999999999,15.959699961853028Q12.66596,15.959699961853028,14.6678,13.957799961853027ZM13.5939,5.365879961853027Q15.1509,6.922909961853027,15.1509,9.124869961853026Q15.1509,11.326829961853027,13.5939,12.883899961853027Q12.03683,14.440899961853027,9.834869999999999,14.440899961853027Q7.6329,14.440899961853027,6.07588,12.883899961853027Q4.51886,11.326829961853027,4.51886,9.124869961853026Q4.51886,6.922899961853028,6.07588,5.365879961853027Q7.6329,3.8088599618530274,9.834869999999999,3.8088599618530274Q12.03683,3.8088599618530274,13.5939,5.365879961853027Z" fill-rule="evenodd" fill="#000000" fill-opacity="1"/></g><g><path d="M15.83317732208252,17.711624298400878L13.30174732208252,14.67390429840088L14.468567322082519,13.701554298400879L16.99999732208252,16.73927429840088L15.83317732208252,17.711624298400878Z" fill-rule="evenodd" fill="#000000" fill-opacity="1"/></g></g></g></svg>