<svg xmlns="http://www.w3.org/2000/svg" xmlns:xlink="http://www.w3.org/1999/xlink" fill="none" version="1.1" width="16" height="16" viewBox="0 0 16 16"><defs><clipPath id="master_svg0_506_10820"><rect x="0" y="0" width="16" height="16" rx="0"/></clipPath></defs><g clip-path="url(#master_svg0_506_10820)"><g style="opacity:0;"><rect x="0" y="0" width="16" height="16" rx="0" fill="#EFEFEF" fill-opacity="1"/></g><g><path d="M13.8686150390625,5.5227648828125L8.2457750390625,1.9999108828125C8.0591050390625,1.8817029828125,7.8210150390625,1.8817029828125,7.6343450390625,1.9999108828125L2.1286290390625,5.5256248828125C1.9657100390625,5.6287648828125,1.8657922790625,5.8071148828125,1.8629150390625,5.9999148828125L1.8629150390625,13.5084548828125C1.8629151753015,13.8240548828125,2.1187520390625,14.0799548828125,2.4343440390625,14.0799548828125L13.5772150390625,14.0799548828125C13.8928150390625,14.0799548828125,14.1486150390625,13.8240548828125,14.1486150390625,13.5084548828125L14.1486150390625,5.9999148828125C14.1436150390625,5.8032748828125005,14.0379150390625,5.6230248828125,13.8686150390625,5.5227648828125ZM12.9943150390625,12.9513548828125L2.9943450390625,12.9513548828125L2.9943450390625,6.3199148828125L7.9343450390625,3.1770548828125L12.9829150390625,6.3199148828125L12.9943150390625,12.9513548828125ZM5.588625039062499,8.6656248828125C7.0768150390625,9.5457348828125,8.9261550390625,9.5457348828125,10.4143450390625,8.6656248828125L10.9857750390625,9.6456248828125C9.1404150390625,10.7579048828125,6.8311250390625,10.7579048828125,4.9857750390625,9.6456248828125L5.588625039062499,8.6656248828125Z" fill="#0068FF" fill-opacity="1"/></g></g></svg>