<svg xmlns="http://www.w3.org/2000/svg" xmlns:xlink="http://www.w3.org/1999/xlink" fill="none" version="1.1" width="88" height="88" viewBox="0 0 88 88"><defs><clipPath id="master_svg0_196_0580"><rect x="0" y="0" width="88" height="88" rx="0"/></clipPath></defs><g clip-path="url(#master_svg0_196_0580)"><g><g><g style="opacity:0;"><rect x="0" y="0" width="88" height="88" rx="0" fill="#EFEFEF" fill-opacity="1"/></g><g><rect x="9.7093505859375" y="12.943359375" width="68.58866882324219" height="62.11333084106445" rx="7.46999979019165" fill="#0068FF" fill-opacity="1"/></g><g><path d="M75.8706669921875,75.0566806640625L12.1293269921875,75.0566806640625C8.8480969921875,75.05568066406249,6.1508669921875,72.4683806640625,6.0133269921875,69.1899806640625L4.3266615221875,29.2526906640625C4.1805979921875,25.7711006640625,6.9653469921875,22.8696244540625,10.4499969921875,22.8726862589525L77.5499669921875,22.8726862589525C81.0346669921875,22.8696230540625,83.8193669921875,25.7711006640625,83.6733669921875,29.2526906640625L81.9866669921875,69.1899806640625C81.8491669921875,72.4683806640625,79.1518669921875,75.05568066406249,75.8706669921875,75.0566806640625Z" fill="#17A5FF" fill-opacity="1"/></g><g style="mix-blend-mode:soft-light"><path d="M75.8706669921875,75.0566806640625L12.1293269921875,75.0566806640625C8.8480969921875,75.05568066406249,6.1508669921875,72.4683806640625,6.0133269921875,69.1899806640625L4.3266615221875,29.2526906640625C4.1805979921875,25.7711006640625,6.9653469921875,22.8696244540625,10.4499969921875,22.8726862589525L77.5499669921875,22.8726862589525C81.0346669921875,22.8696230540625,83.8193669921875,25.7711006640625,83.6733669921875,29.2526906640625L81.9866669921875,69.1899806640625C81.8491669921875,72.4683806640625,79.1518669921875,75.05568066406249,75.8706669921875,75.0566806640625Z" fill="#34F1FF" fill-opacity="1" style="mix-blend-mode:soft-light"/></g><g style="mix-blend-mode:soft-light"><path d="M77.55,22.8726848602325L44,22.8726848602325L44,75.0566806640625L75.8707,75.0566806640625C79.1519,75.05568066406249,81.84909999999999,72.4683806640625,81.9867,69.1899806640625L83.6733,29.2526906640625C83.8194,25.7711006640625,81.0347,22.8696174640625,77.55,22.8726848602325Z" fill="#34F1FF" fill-opacity="1" style="mix-blend-mode:soft-light"/></g><g><path d="M54.26663740234375,48.4000244140625L46.58863740234375,53.3867244140625L46.58863740234375,37.4000244140625L41.45533740234375,37.4000244140625L41.45533740234375,53.3867244140625L33.73333740234375,48.4000244140625L33.73333740234375,54.0760244140625L42.59933740234375,60.0673244140625C43.47057740234375,60.6535244140625,44.61013740234375,60.6535244140625,45.48133740234375,60.0673244140625L54.26663740234375,54.0760244140625L54.26663740234375,48.4000244140625Z" fill="#FFFFFF" fill-opacity="1"/></g></g></g></g></svg>