<svg xmlns="http://www.w3.org/2000/svg" xmlns:xlink="http://www.w3.org/1999/xlink" fill="none" version="1.1" width="32" height="32" viewBox="0 0 32 32"><defs><clipPath id="master_svg0_1126_7260"><rect x="0" y="0" width="32" height="32" rx="0"/></clipPath></defs><g clip-path="url(#master_svg0_1126_7260)"><g style="opacity:0;"><rect x="0" y="0" width="32" height="32" rx="0" fill="#EFEFEF" fill-opacity="1"/></g><g><path d="M24.74282578125,3.3828125L7.25713578125,3.3828125C6.12732278125,3.3828125,5.211426326207,4.2987095,5.21142578125,5.4285225L5.21142578125,26.5714125C5.21142469134,27.7012125,6.12732278125,28.6171125,7.25713578125,28.6171125L24.74282578125,28.6171125C25.87262578125,28.6171125,26.78852578125,27.7012125,26.78852578125,26.5714125L26.78852578125,5.4285225C26.78852578125,4.2987105,25.87262578125,3.382812772478,24.74282578125,3.3828125ZM8.63428578125,17.5142125L15.88002578125,17.5142125L15.88002578125,19.6514125L8.63428578125,19.6514125L8.63428578125,17.5142125ZM20.45712578125,24.5085125L8.63428578125,24.5085125L8.63428578125,22.3714125L20.45712578125,22.3714125L20.45712578125,24.5085125ZM18.69712578125,14.0457125L17.091425781250003,14.0457125L17.091425781250003,12.4456725L22.23432578125,7.3028125L23.83432578125,8.9028125L18.69712578125,14.0457125Z" fill="#0068FF" fill-opacity="1"/></g></g></svg>