<svg xmlns="http://www.w3.org/2000/svg" xmlns:xlink="http://www.w3.org/1999/xlink" fill="none" version="1.1" width="120" height="24" viewBox="0 0 120 24"><g><path d="M2.96,20.46Q1.9,20.26,0.98,19.86L1.22,18.12Q1.96,18.44,2.58,18.58Q2.64,18.6,2.72,18.6Q2.8,18.6,2.83,18.52Q2.86,18.44,2.86,18.3L3.4,13.84L2.36,14.14L1.3,14.46L1.56,12.46L3.64,11.92L4.06,8.4L1.98,8.4L2.18,6.62L4.28,6.62L4.68,3.36L6.5,3.36L6.1,6.62L7.84,6.62L7.62,8.4L5.9,8.4L5.54,11.32Q6.28,11.08,7.3,10.7L7.08,12.62L6.2,12.92L5.32,13.22L4.64,19Q4.56,19.68,4.17,20.08Q3.78,20.48,3.22,20.48Q3.04,20.48,2.96,20.46ZM17.06,4.08Q18.02,4.08,18.46,4.4Q18.9,4.72,18.9,5.44Q18.9,5.66,18.88,5.78L18.6,7.9L16.72,7.9L17,5.82L10.14,5.82L9.82,7.9L8,7.9L8.3,5.76Q8.4,4.88,8.8,4.48Q9.2,4.08,10.06,4.08L17.06,4.08ZM8.24,9L12.68,6.88L12.46,8.64L8.02,10.8L8.24,9ZM18.26,10.78L13.82,8.64L14.02,6.94L18.46,9.02L18.26,10.78ZM14.04,9.58L13.82,11.46L18.44,11.46L18.26,13.24L14.18,13.24Q15.02,14.92,16.13,16.34Q17.24,17.76,18.82,19.16L17.02,19.98Q14.88,17.88,13.44,15.1L12.84,20.52L11.04,20.52L11.6,15.38Q10.62,16.7,9.54,17.75Q8.46,18.8,7.12,19.8L5.44,18.92Q7.3,17.6,8.67,16.25Q10.04,14.9,11.14,13.24L7.54,13.24L7.74,11.46L12.04,11.46L12.26,9.58L14.04,9.58ZM37.94,6.14L31.94,6.14L31.78,7.3L36.58,7.3Q37.56,7.3,37.99,7.61Q38.42,7.92,38.42,8.64Q38.42,8.88,38.4,9L38.14,11.08L36.26,11.08L36.5,8.94L30.08,8.94L31.1,9.74Q29.68,10.52,27.44,11.38Q29.9,11.26,31.48,11.06Q32.88,10.36,33.88,9.76L35.2,10.86Q32.78,12.02,31.12,12.7Q29.22,13.52,27.38,14.18Q29.34,14.04,30.64,13.92Q32.3,13.8,34.08,13.6L33.3,12.32L35.18,12.32L37.68,15.96L35.56,15.96L35,15.08Q33.14,15.26,31.24,15.38L30.82,18.96Q30.72,19.76,30.26,20.17Q29.8,20.58,29.02,20.52Q27.96,20.42,26.38,20.02L26.56,18.3Q27.6,18.58,28.48,18.7L28.54,18.7Q28.68,18.7,28.75,18.62Q28.82,18.54,28.86,18.3L29.24,15.5Q26.7,15.64,24.32,15.68Q23.78,15.68,23.49,15.46Q23.2,15.24,23.2,14.92Q23.2,14.64,23.4,14.41Q23.6,14.18,24,14.06Q26.24,13.36,28.52,12.42Q28.06,12.48,26.02,12.64Q25.78,12.64,25.38,12.68Q24.9,12.7,24.62,12.48Q24.34,12.26,24.34,11.94Q24.34,11.7,24.52,11.47Q24.7,11.24,25.02,11.12Q25.74,10.84,26.92,10.2Q28.6,9.34,29.22,8.94L24.66,8.94L24.4,11.08L22.6,11.08L22.82,8.92Q22.92,8.04,23.31,7.67Q23.7,7.3,24.56,7.3L29.74,7.3L29.9,6.14L23.82,6.14L24.04,4.5L30.12,4.5L30.3,3.22L32.34,3.22L32.16,4.5L38.16,4.5L37.94,6.14ZM35.06,16.26L37.86,19.54L35.46,19.54L32.84,16.26L35.06,16.26ZM26.96,16.28L23.64,19.54L21.1,19.54L24.62,16.28L26.96,16.28ZM57.48,4.22L57.28,6.04L51.46,6.04L51.1,9.08L51.02,9.6L58.22,9.6L57.98,11.48L50.48,11.48Q49.54,14.04,47.46,16.64Q46.46,17.86,45.33,18.85Q44.2,19.84,43.06,20.42L41.04,19.48Q43.36,18.18,45.4,15.96Q47.4,13.78,48.36,11.48L42.22,11.48L42.44,9.6L48.94,9.6L49,9.24L49.4,6.04L43.78,6.04L44,4.22L57.48,4.22ZM50.5,12.28L52.52,12.28L51.86,17.9Q51.84,17.98,51.84,18.1Q51.84,18.28,51.94,18.36Q52.04,18.44,52.3,18.44L54.1,18.44Q55.12,18.44,56.14,18.25Q57.16,18.06,58,17.72L57.74,19.78Q56.02,20.28,53.86,20.28L51.46,20.28Q50.62,20.28,50.19,19.91Q49.76,19.54,49.76,18.84Q49.76,18.62,49.78,18.5L50.5,12.28ZM66.98,10.02Q67.94,12.08,67.94,14.16Q67.94,14.78,67.84,15.64Q67.7,16.6,67.26,17.1Q66.82,17.6,66.08,17.6Q65.62,17.6,65.1,17.45Q64.58,17.3,64.16,17.08L64.32,15.28Q64.98,15.66,65.58,15.74Q65.88,15.78,66.01,15.66Q66.14,15.54,66.18,15.14Q66.26,14.58,66.26,13.92Q66.26,12.74,65.8,11.48Q65.38,10.52,65.16,10.08L66.76,5.84L64.92,5.84L63.14,20.58L61.3,20.58L63.1,5.78Q63.22,4.76,63.54,4.37Q63.86,3.98,64.62,3.96L67.72,3.96Q68.3,3.96,68.6,4.23Q68.9,4.5,68.9,5Q68.9,5.4,68.68,5.94L66.98,10.02ZM73.44,12.72Q73.74,13.66,74.3,14.84Q76.24,14.12,77.8,13.36L77.6,15.26Q76.12,15.9,75.16,16.24Q76.46,18.02,78.6,19.46L76.82,20.52Q74.94,19.04,73.69,17.16Q72.44,15.28,71.6,12.72L70.76,12.72L70.1,18.04L70.1,18.14Q70.1,18.4,70.24,18.4Q70.26,18.4,70.54,18.32L71.86,17.86Q72.56,17.6,73,17.4L72.94,19.38Q71.8,19.94,70.04,20.4Q69.6,20.5,69.36,20.5Q68.2,20.5,68.2,19.16Q68.2,18.88,68.22,18.72L69.78,5.68Q69.9,4.76,70.33,4.38Q70.76,4,71.76,4L76.68,4Q78.4,4,78.4,5.5Q78.4,5.72,78.38,5.84L77.56,12.72L73.44,12.72ZM76.54,5.74L71.66,5.74L71.42,7.56L76.32,7.56L76.54,5.74ZM76.12,9.16L71.22,9.16L70.98,10.98L75.9,10.98L76.12,9.16ZM98.56,4.16L98.32,6.04L96.42,6.04L95.02,18.9Q94.92,19.72,94.49,20.11Q94.06,20.5,93.28,20.5Q92.98,20.5,92.64,20.44Q90.68,20.16,88.98,19.58L89.2,17.72Q90.86,18.22,92.52,18.54Q92.6,18.56,92.72,18.56Q92.88,18.56,92.96,18.46Q93.04,18.36,93.08,18.14L94.36,6.04L82.94,6.04L83.18,4.16L98.56,4.16ZM90.48,16.14L82.98,16.14L83.76,9.9Q83.86,8.92,84.29,8.51Q84.72,8.1,85.66,8.1L89.52,8.1Q91.22,8.1,91.22,9.74Q91.22,9.98,91.2,10.12L90.48,16.14ZM85.06,14.4L88.84,14.4L89.36,9.78L85.62,9.78L85.06,14.4ZM108.74,8.34Q106.66,8.7,103.48,8.94Q103,8.98,102.64,8.82Q102.28,8.66,102.14,8.38Q102.04,8.18,102.04,7.98Q102.04,7.54,102.48,7.04Q103.56,5.82,105.24,3.38L107.46,3.38Q106.78,4.46,105.98,5.54Q105.38,6.34,104.64,7.16Q106.72,7.02,108.34,6.7L107.9,4.76L109.62,4.76L110.74,9.28L108.96,9.28L108.74,8.34ZM118.14,6.28Q116.44,6.9,113.3,7.46L113.18,8.64Q113.16,8.7,113.16,8.8Q113.16,9.18,113.68,9.18L114.98,9.18Q116.88,9.18,118.5,8.38L118.24,10.36Q116.94,10.94,114.74,10.94L112.86,10.94Q112.02,10.94,111.63,10.59Q111.24,10.24,111.24,9.56Q111.24,9.34,111.26,9.2L111.86,3.42L113.72,3.42L113.48,5.76Q115.32,5.4,118.34,4.46L118.14,6.28ZM107.5,17.06L103.6,17.06L103.24,20.5L101.46,20.5L102.4,11.34Q102.5,10.46,102.89,10.08Q103.28,9.7,104.12,9.7L108.38,9.7Q109.84,9.7,109.84,11.02Q109.84,11.26,109.82,11.38L109.16,18.78Q109.04,19.74,108.65,20.14Q108.26,20.54,107.42,20.54Q106.86,20.54,106.2,20.45Q105.54,20.36,105.2,20.22L105.34,18.52Q106.42,18.8,106.94,18.8Q107.18,18.8,107.27,18.7Q107.36,18.6,107.4,18.26L107.5,17.06ZM108,11.38L104.2,11.38L104.06,12.62L107.88,12.62L108,11.38ZM117.42,14.92Q116.52,15.24,115.14,15.56Q113.56,15.92,112.5,16.1L112.28,18.08Q112.18,18.6,112.76,18.6L114.1,18.6Q114.98,18.6,115.97,18.39Q116.96,18.18,117.76,17.78L117.5,19.78Q116.84,20.06,115.86,20.22Q114.88,20.38,113.86,20.38L111.96,20.38Q111.12,20.38,110.73,20.03Q110.34,19.68,110.34,19Q110.34,18.76,110.36,18.62L111.12,11.66L112.98,11.66L112.68,14.32Q115.42,13.78,117.62,13.08L117.42,14.92ZM107.74,14.22L103.9,14.22L103.76,15.46L107.64,15.46L107.74,14.22Z" fill="#FFFFFF" fill-opacity="1"/></g></svg>