<svg xmlns="http://www.w3.org/2000/svg" xmlns:xlink="http://www.w3.org/1999/xlink" fill="none" version="1.1" width="20" height="20" viewBox="0 0 20 20"><defs><clipPath id="master_svg0_1126_4694"><rect x="0" y="0" width="20" height="20" rx="0"/></clipPath></defs><g clip-path="url(#master_svg0_1126_4694)"><g style="opacity:0;"><rect x="0" y="0" width="20" height="20" rx="0" fill="#EFEFEF" fill-opacity="1"/></g><g><path d="M5.849992226562501,13.83553359375L5.2464222265625,13.83553359375C4.1525332265625,13.83353359375,3.2662481565625,12.94723359375,3.2642822265625,11.85336359375L3.2642822265625,4.7105035937499995C3.2642808641725,3.41205359375,4.3158322265625,2.35890378375,5.6142822265625,2.35693359375L10.9428522265625,2.35693359375C12.0367422265625,2.35889969375,12.9230322265625,3.24518459375,12.9249922265625,4.33907359375L12.9249922265625,4.999793593750001L11.4964222265625,4.999793593750001L11.4964222265625,4.33193359375C11.4944722265625,4.0270135937500005,11.2477722265625,3.78031359375,10.9428522265625,3.77836359375L5.6142822265625,3.77836359375C5.1048222265625,3.78032359375,4.6928522265625,4.19388359375,4.6928522265625,4.70336359375L4.6928522265625,11.84621359375C4.6908622265624995,12.15277359375,4.9398722265625,12.40183359375,5.2464222265625,12.39983359375L5.8500022265625,12.39983359375L5.849992226562501,13.83553359375ZM16.7356822265625,15.66763359375L16.7356822265625,8.14621359375C16.7337822265625,7.05232359375,15.8474822265625,6.16604359375,14.7535822265625,6.16407359375L9.0392822265625,6.16407359375C7.9453922265625,6.16604359375,7.0591022265625,7.05232359375,7.0571422265625,8.14621359375L7.0571422265625,15.66763359375C7.0591022265625,16.761533593750002,7.9453922265625,17.64783359375,9.0392822265625,17.64983359375L14.7535822265625,17.64983359375C15.8474822265625,17.64783359375,16.7337822265625,16.761533593750002,16.7356822265625,15.66763359375ZM14.7535822265625,7.59264359375C15.0600822265625,7.59065359375,15.3091822265625,7.83966359375,15.3071822265625,8.14621359375L15.3071822265625,15.66763359375C15.3071822265625,15.97333359375,15.0592822265625,16.22123359375,14.7535822265625,16.22123359375L9.0392822265625,16.22123359375C8.7343622265625,16.219233593749998,8.487662226562499,15.97253359375,8.4857122265625,15.66763359375L8.4857122265625,8.14621359375C8.4857122265625,7.84049359375,8.7335522265625,7.59264359375,9.0392822265625,7.59264359375L14.7535822265625,7.59264359375Z" fill="#0068FF" fill-opacity="1"/></g></g></svg>