<svg xmlns="http://www.w3.org/2000/svg" xmlns:xlink="http://www.w3.org/1999/xlink" fill="none" version="1.1" width="16" height="16" viewBox="0 0 16 16"><defs><clipPath id="master_svg0_506_10802"><rect x="0" y="0" width="16" height="16" rx="0"/></clipPath></defs><g clip-path="url(#master_svg0_506_10802)"><g style="opacity:0;"><rect x="0" y="0" width="16" height="16" rx="0" fill="#EFEFEF" fill-opacity="1"/></g><g><path d="M7.9998974609375,1.51995849609375C4.4210874609375,1.51995835985475,1.5198974609375,4.42114849609375,1.5198974609375,7.99995849609375C1.5198974609375,11.57875849609375,4.4210874609375,14.47995849609375,7.9998974609375,14.47995849609375C11.5786974609375,14.47995849609375,14.4798974609375,11.57875849609375,14.4798974609375,7.99995849609375C14.4767974609375,4.42245849609375,11.5773974609375,1.52310916609375,7.9998974609375,1.51995849609375ZM13.3055974609375,7.42852849609375L11.1998974609375,7.42852849609375C11.1313274609375,5.68566849609375,10.7484674609375,4.17709849609375,10.1598974609375,3.1228184960937497C11.9005974609375,3.89528849609375,13.0987974609375,5.53542849609375,13.3055974609375,7.42852849609375ZM7.9998974609375,13.33705849609375C7.0856074609375,13.33705849609375,6.0684674609375,11.33709849609375,5.9456074609375,8.57138849609375L10.0541874609375,8.57138849609375C9.9313274609375,11.33424849609375,8.9141874609375,13.33705849609375,7.9998974609375,13.33705849609375ZM5.9456074609375,7.42852849609375C6.0684674609375,4.665668496093749,7.0884674609375,2.6628184960937498,7.9998974609375,2.6628184960937498C8.9113274609375,2.6628184960937498,9.9313274609375,4.662818496093751,10.0541874609375,7.42852849609375L5.9456074609375,7.42852849609375ZM5.8398974609375,3.1228184960937497C5.2513274609375,4.17709849609375,4.8570374609375,5.68566849609375,4.799897460937499,7.42852849609375L2.6941874609375,7.42852849609375C2.9009674609375002,5.53542849609375,4.0992474609375,3.89528849609375,5.8398974609375,3.1228184960937497ZM2.6941874609375,8.57138849609375L4.799897460937499,8.57138849609375C4.8684674609375005,10.31424849609375,5.2513274609375,11.82285849609375,5.8398974609375,12.87705849609375C4.0992474609375,12.10465849609375,2.9009674609375002,10.46448849609375,2.6941874609375,8.57138849609375ZM10.1598974609375,12.87705849609375C10.7484674609375,11.82285849609375,11.1313274609375,10.30567849609375,11.1998974609375,8.57138849609375L13.3055974609375,8.57138849609375C13.0987974609375,10.46448849609375,11.9005974609375,12.10465849609375,10.1598974609375,12.87705849609375Z" fill="#0068FF" fill-opacity="1"/></g></g></svg>