<svg xmlns="http://www.w3.org/2000/svg" xmlns:xlink="http://www.w3.org/1999/xlink" fill="none" version="1.1" width="14" height="14" viewBox="0 0 14 14"><defs><clipPath id="master_svg0_196_3923"><rect x="0" y="0" width="14" height="14" rx="0"/></clipPath></defs><g clip-path="url(#master_svg0_196_3923)"><g style="opacity:0;"><rect x="0" y="0" width="14" height="14" rx="0" fill="#EFEFEF" fill-opacity="1"/></g><g><path d="M6.999984130859375,12.670078125C3.868204130859375,12.671478125,1.328404664859375,10.133518125,1.327484250068375,7.001748125C1.327023386859375,3.869508125,3.865704130859375,1.330078244209,6.997484130859375,1.330078244209C10.128804130859375,1.32961762,12.667484130859375,3.868298125,12.667484130859375,7.000078125C12.663384130859376,10.128848125,10.128754130859376,12.664578125,6.999984130859375,12.670078125ZM6.999984130859375,2.330077125C4.420484130859375,2.328697125,2.328404130859375,4.418918124999999,2.327484130859375,6.998408125C2.327023130859375,9.578368125,4.4179841308593755,11.670078125,6.997484130859375,11.670078125C9.576514130859374,11.670578125,11.667484130859375,9.579568125,11.667484130859375,7.000078125C11.664684130859374,4.423028125,9.577034130859374,2.334208125,6.999984130859375,2.330077125ZM7.572484130859375,5.855078125L6.422484130859375,5.855078125L6.359984130859375,10.277578125L7.632484130859375,10.277578125L7.572484130859375,5.855078125ZM6.999984130859375,5.2075781249999995C7.414194130859375,5.2075781249999995,7.749984130859375,4.871788125,7.749984130859375,4.4575781249999995C7.749984130859375,4.043368125000001,7.414194130859375,3.707578125,6.999984130859375,3.707578125C6.585774130859375,3.707578125,6.249984130859375,4.043368125000001,6.249984130859375,4.4575781249999995C6.249984130859375,4.871788125,6.585774130859375,5.2075781249999995,6.999984130859375,5.2075781249999995Z" fill="#0068FF" fill-opacity="1"/></g></g></svg>