<svg xmlns="http://www.w3.org/2000/svg" xmlns:xlink="http://www.w3.org/1999/xlink" fill="none" version="1.1" width="16" height="16" viewBox="0 0 16 16"><defs><clipPath id="master_svg0_506_10811"><rect x="0" y="0" width="16" height="16" rx="0"/></clipPath></defs><g clip-path="url(#master_svg0_506_10811)"><g style="opacity:0;"><rect x="0" y="0" width="16" height="16" rx="0" fill="#EFEFEF" fill-opacity="1"/></g><g><path d="M15.67719375,5.517148125C15.46579375,4.865718125,14.75149375,4.088568125,12.59719375,3.988568125C10.99249375,2.144501125,8.44199375,1.4364531249999999,6.11638375,2.1894611250000002C3.79076375,2.942468125,2.1392837499999997,5.011088125000001,1.92003375,7.445718125C0.23431895,8.785718124999999,0.11431875,9.831428125,0.32289035,10.482858125C0.5314617500000001,11.134288125,1.24289075,11.911478125,3.40289375,12.011478125C5.00753375,13.855478125,7.55807375,14.563578125,9.88368375,13.810578125C12.20929375,13.057578125,13.86079375,10.988918125,14.07999375,8.554288125C15.76859375,7.211428125,15.88579375,6.162858125,15.67719375,5.517148125ZM8.00003375,3.034288125C10.72519375,3.037318125,12.93939375,5.2349081250000005,12.96289375,7.959998125C11.63609375,8.855988125,10.18423375,9.551108124999999,8.65432375,10.022858125C7.13980375,10.536268125,5.55825375,10.825048125,3.96003375,10.879998125C2.87586375,9.367968125,2.72966375,7.376168125,3.58143375,5.722028125C4.43319375,4.067898125,6.13948375,3.029998125,8.00003375,3.034288125ZM1.41146375,10.131428125C1.33717375,9.899998125,1.46860375,9.482858125,1.98289375,8.939998124999999C2.0803737499999997,9.576998125,2.27907375,10.194308125,2.57146375,10.768568125C1.83432375,10.622858125,1.48574375,10.359998125,1.41146375,10.131428125ZM8.00003375,12.965678125C6.92483375,12.965078125,5.87931375,12.612978125,5.02289375,11.962878125C6.37733375,11.820328125,7.71258375,11.532968125,9.00574375,11.105718125C10.30819375,10.692568125,11.56209375,10.139828125,12.74579375,9.457148125C12.10349375,11.540148125,10.17981375,12.962378125,8.00003375,12.965678125ZM14.02859375,7.059998125C13.92749375,6.422348125,13.72499375,5.8050081250000005,13.42859375,5.231428125C14.15429375,5.377148125,14.50579375,5.639998125,14.57149375,5.8685681249999995C14.63719375,6.097148125,14.53149375,6.514288125,14.02859375,7.059998125Z" fill="#0068FF" fill-opacity="1"/></g></g></svg>