<svg xmlns="http://www.w3.org/2000/svg" xmlns:xlink="http://www.w3.org/1999/xlink" fill="none" version="1.1" width="16" height="16" viewBox="0 0 16 16"><defs><clipPath id="master_svg0_506_11072"><rect x="0" y="0" width="16" height="16" rx="0"/></clipPath></defs><g clip-path="url(#master_svg0_506_11072)"><g><path d="M7.5971701953125,10.631548300781251L4.9285901953125,7.96296830078125L5.7343101953125,7.14296830078125L7.4285901953125,8.85725830078125L7.4285901953125,2.87725830078125L8.5714501953125,2.87725830078125L8.5714501953125,8.85725830078125L10.2657401953125,7.14296830078125L11.0714501953125,7.95154830078125L8.4028801953125,10.62011830078125C8.1800001953125,10.84166830078125,7.8200401953125,10.84166830078125,7.5971701953125,10.62011830078125L7.5971701953125,10.631548300781251ZM12.7400501953125,9.00011830078125L12.7400501953125,11.19725830078125L11.7971601953125,12.14296830078125L4.2028801953125,12.14296830078125L3.2543101953124998,11.19725830078125L3.2543101953124998,9.00011830078125L2.1114501953125,9.00011830078125L2.1114501953125,11.42868830078125C2.1120692663125,11.58280830078125,2.1749189953125,11.73014830078125,2.2857361953125,11.83725830078125L3.5685901953125,13.12015830078125C3.6757301953125,13.22635830078125,3.8205501953125003,13.28595830078125,3.9714501953125003,13.28585830078125L12.0343101953125,13.28585830078125C12.1852501953125,13.28595830078125,12.3300501953125,13.22635830078125,12.4371501953125,13.12015830078125L13.7143501953125,11.83725830078125C13.8251501953125,11.73014830078125,13.8879501953125,11.58280830078125,13.8885501953125,11.42868830078125L13.8885501953125,9.00011830078125L12.7400501953125,9.00011830078125Z" fill="#0068FF" fill-opacity="1"/></g></g></svg>