<svg xmlns="http://www.w3.org/2000/svg" xmlns:xlink="http://www.w3.org/1999/xlink" fill="none" version="1.1" width="24" height="24" viewBox="0 0 24 24"><defs><clipPath id="master_svg0_619_02006"><rect x="0" y="0" width="24" height="24" rx="0"/></clipPath></defs><g clip-path="url(#master_svg0_619_02006)"><g style="opacity:0;"><rect x="0" y="0" width="24" height="24" rx="0" fill="#EFEFEF" fill-opacity="1"/></g><g><path d="M12.42858154296875,10.86858154296875L12.42858154296875,6.31287154296875L13.85998154296875,6.31287154296875L13.85998154296875,9.14144154296875L16.39288154296875,6.60858154296875L17.40428154296875,7.62001154296875L14.87148154296875,10.15287154296875L17.69998154296875,10.15287154296875L17.69998154296875,11.57144154296875L13.13148154296875,11.57144154296875C12.74614154296875,11.56458154296875,12.43544154296875,11.25388154296875,12.42858154296875,10.86858154296875ZM6.60858154296875,16.37998154296875L7.62001154296875,17.391481542968748L10.15287154296875,14.85858154296875L10.15287154296875,17.68718154296875L11.57144154296875,17.68718154296875L11.57144154296875,13.13148154296875C11.56458154296875,12.74614154296875,11.25388154296875,12.43544154296875,10.86858154296875,12.42858154296875L6.31287154296875,12.42858154296875L6.31287154296875,13.85998154296875L9.14144154296875,13.85998154296875L6.60858154296875,16.37998154296875ZM21.14148154296875,3.57429554296875L21.14148154296875,20.42568154296875C21.14148154296875,20.82028154296875,20.82028154296875,21.13948154296875,20.42568154296875,21.13718154296875L3.57429554296875,21.13718154296875C3.17971954296875,21.13958154296875,2.85858174732775,20.82028154296875,2.85858154296875,20.42568154296875L2.85858154296875,3.57429554296875C2.85858133860975,3.17901754296875,3.17901754296875,2.85858133860975,3.57429554296875,2.85858154296875L20.42568154296875,2.85858154296875C20.82098154296875,2.85858133860975,21.14148154296875,3.17901754296875,21.14148154296875,3.57429554296875ZM19.71428154296875,4.28572154296875L4.28572154296875,4.28572154296875L4.28572154296875,19.71428154296875L19.71428154296875,19.71428154296875L19.71428154296875,4.28572154296875Z" fill="#FFFFFF" fill-opacity="1"/></g></g></svg>