<svg xmlns="http://www.w3.org/2000/svg" xmlns:xlink="http://www.w3.org/1999/xlink" fill="none" version="1.1" width="150" height="150" viewBox="0 0 150 150"><g><g><g style="opacity:0;"><rect x="0" y="0" width="150" height="150" rx="0" fill="#EFEFEF" fill-opacity="1"/></g><g><rect x="6.60009765625" y="26.9375" width="136.78750610351562" height="96.12500762939453" rx="12" fill="#17A5FF" fill-opacity="1"/></g><g style="mix-blend-mode:soft-light"><rect x="6.60009765625" y="26.9375" width="136.78750610351562" height="96.12500762939453" rx="12" fill="#34F1FF" fill-opacity="1" style="mix-blend-mode:soft-light"/></g><g><path d="M75.00009765625,64L6.60009765625,108.75L6.60009765625,111.5375C6.60009169579,117.9075,11.76762765625,123.0694,18.13759765625,123.0625L131.88809765625,123.0625C138.25709765625,123.0694,143.42509765625,117.9075,143.42509765625,111.5375L143.42509765625,108.75L75.00009765625,64Z" fill="#2EE2FF" fill-opacity="1"/></g><g><path d="M82.899951171875,80.8375L143.399951171875,41.25L143.399951171875,38.4625C143.399951171875,32.09254,138.231951171875,26.93060017,131.861951171875,26.93750715256L18.112451171875,26.93750715256C11.742491171874999,26.93059301,6.574951171875,32.09253,6.574951171875,38.4625L6.574951171875,41.25L67.074951171875,80.8375C71.880151171875,83.9859,78.094751171875,83.9859,82.899951171875,80.8375Z" fill="#0068FF" fill-opacity="1"/></g></g></g></svg>