<svg xmlns="http://www.w3.org/2000/svg" xmlns:xlink="http://www.w3.org/1999/xlink" fill="none" version="1.1" width="64" height="64" viewBox="0 0 64 64"><g><g style="opacity:0;"><rect x="0" y="0" width="64" height="64" rx="0" fill="#EFEFEF" fill-opacity="1"/></g><g><g style="opacity:0.05999999865889549;"><path d="M15.7086,21.4125L30.7772,30.104C31.3076,30.4102,31.9611,30.4102,32.4915,30.104L47.56,21.4125C48.1294,21.0822,48.1294,20.25997,47.56,19.92967L32.4915,11.229671C31.9611,10.9234436,31.3076,10.9234436,30.7772,11.229671L15.7086,19.92967C15.13919,20.25997,15.13919,21.0822,15.7086,21.4125ZM14.28572,23.872500000000002L29.3457,32.572500000000005C29.8756,32.8784,30.2022,33.4436,30.2029,34.0554L30.2029,51.4554C30.1989,52.1129,29.4866,52.5213,28.9172,52.1925L13.85715,43.5011C13.327291,43.1952,13.000633388,42.6301,13.00000682382,42.0182L13.00000682382,24.6182C12.99878517,24.3114,13.161673,24.0273,13.427098,23.8734C13.692523,23.7194,14.01999,23.719099999999997,14.28572,23.872500000000002ZM33.9229,32.572500000000005L48.9829,23.872500000000002C49.2486,23.719099999999997,49.5761,23.7194,49.8415,23.8734C50.1069,24.0273,50.2698,24.3114,50.2686,24.6182L50.2686,42.0182C50.268,42.6301,49.9413,43.1952,49.4115,43.5011L34.3515,52.1925C33.782,52.5213,33.0697,52.1129,33.0657,51.4554L33.0657,34.0554C33.0664,33.4436,33.393,32.8784,33.9229,32.572500000000005Z" fill-rule="evenodd" fill="#000000" fill-opacity="1"/></g></g></g></svg>