<svg xmlns="http://www.w3.org/2000/svg" xmlns:xlink="http://www.w3.org/1999/xlink" fill="none" version="1.1" width="93.17152404785156" height="103.27156829833984" viewBox="0 0 93.17152404785156 103.27156829833984"><g style="opacity:0.05999999865889549;"><path d="M6.77149,26.0313L44.4429,47.7599C45.7689,48.5255,47.4026,48.5255,48.7286,47.7599L86.4001,26.0313C87.8236,25.2056,87.8236,23.1499,86.4001,22.3242L48.7286,0.574177C47.4026,-0.191391,45.7689,-0.191391,44.4429,0.574177L6.77149,22.3242C5.34798,23.1499,5.34798,25.2056,6.77149,26.0313ZM3.2143,32.1813L40.8643,53.9313C42.1889,54.6961,43.0056,56.1089,43.0072,57.6385L43.0072,101.138C42.9973,102.782,41.2165,103.803,39.7929,102.981L2.14287,81.2527C0.818227,80.488,0.00158347,79.0752,0.0000170595,77.5456L0.0000170595,34.0456C-0.00303708,33.2785,0.404184,32.5683,1.06775,32.1834C1.73131,31.7986,2.54998,31.7978,3.2143,32.1813ZM52.3072,53.9313L89.9572,32.1813C90.6216,31.7978,91.4402,31.7986,92.1038,32.1834C92.7673,32.5683,93.1746,33.2785,93.1715,34.0456L93.1715,77.5456C93.1699,79.0752,92.3533,80.488,91.0287,81.2527L53.3787,102.981C51.955,103.803,50.1743,102.782,50.1644,101.138L50.1644,57.6385C50.1659,56.1089,50.9826,54.6961,52.3072,53.9313Z" fill-rule="evenodd" fill="#000000" fill-opacity="1"/></g></svg>